<?xml version="1.0" standalone="no"?>
<!DOCTYPE svg PUBLIC "-//W3C//DTD SVG 20010904//EN"
 "http://www.w3.org/TR/2001/REC-SVG-20010904/DTD/svg10.dtd">
<svg version="1.0" xmlns="http://www.w3.org/2000/svg"
 width="245.000000pt" height="245.000000pt" viewBox="0 0 245.000000 245.000000"
 preserveAspectRatio="xMidYMid meet">
<metadata>
Created by potrace 1.11, written by Peter Selinger 2001-2013
</metadata>
<g transform="translate(0.000000,245.000000) scale(0.100000,-0.100000)"
fill="#000000" stroke="none">
<path d="M1540 2349 c-25 -4 -61 -9 -80 -12 -19 -3 -62 -9 -95 -12 -33 -4 -62
-9 -65 -10 -3 -2 -30 -6 -60 -10 -30 -3 -62 -8 -70 -10 -8 -2 -40 -7 -70 -10
-30 -3 -66 -8 -80 -10 -40 -5 -113 -17 -134 -21 -10 -2 -44 -6 -75 -9 -31 -4
-63 -8 -71 -10 -8 -2 -37 -7 -65 -11 -27 -3 -57 -8 -65 -9 -9 -2 -43 -6 -75
-10 -80 -9 -105 -26 -105 -70 0 -18 4 -36 8 -39 10 -6 14 -66 5 -67 -99 -11
-123 -19 -134 -46 -5 -14 -6 -35 -2 -47 3 -11 7 -28 8 -36 2 -8 6 -23 10 -32
5 -13 0 -20 -19 -28 -15 -5 -30 -9 -34 -8 -24 6 -73 -16 -77 -35 -7 -32 -1
-97 9 -97 5 0 2 -8 -5 -17 -8 -9 -9 -14 -3 -11 6 4 15 -10 21 -33 6 -22 6 -42
2 -45 -5 -3 -2 -12 6 -21 13 -12 13 -18 3 -31 -9 -11 -9 -14 -1 -9 8 5 14 -5
19 -30 3 -21 12 -60 19 -88 7 -27 11 -58 11 -70 -1 -11 1 -22 5 -25 3 -3 9
-20 12 -38 5 -24 3 -31 -6 -27 -6 4 -3 -1 7 -9 11 -9 17 -16 14 -16 -3 0 1
-26 9 -57 8 -31 16 -76 17 -99 2 -23 6 -46 10 -53 7 -11 13 -33 23 -86 9 -48
11 -60 14 -60 1 0 3 -9 5 -20 1 -11 10 -51 19 -90 9 -38 20 -92 25 -119 6 -27
12 -52 15 -54 3 -3 -1 -12 -8 -20 -9 -13 -9 -14 0 -8 9 5 13 -1 14 -21 1 -15
1 -31 0 -35 0 -5 3 -8 7 -8 4 0 9 -14 10 -31 3 -44 6 -53 17 -62 6 -4 5 -10
-3 -16 -11 -6 -10 -10 5 -15 17 -7 17 -8 -2 -23 -15 -12 -16 -14 -3 -10 16 6
22 -13 33 -93 5 -38 26 -70 50 -76 22 -5 24 -9 13 -23 -12 -15 -11 -15 7 0 11
9 34 19 50 23 17 3 44 8 60 11 38 8 60 13 60 15 0 1 9 3 20 5 52 9 95 18 149
30 44 10 64 11 73 3 10 -8 12 -7 8 4 -5 12 4 17 40 23 56 8 120 22 120 25 0 3
51 10 87 12 20 1 34 6 32 10 -5 7 15 11 59 11 9 0 17 3 17 8 0 4 9 6 20 4 11
-2 22 0 25 6 10 16 25 10 19 -9 -5 -14 -4 -15 5 -2 6 8 14 15 18 16 4 0 15 4
23 7 8 4 31 8 50 9 19 2 38 7 41 11 4 5 29 10 57 10 27 1 48 5 45 10 -2 4 5 7
17 7 13 0 19 -4 14 -12 -4 -7 -3 -8 5 -4 6 4 9 11 6 16 -8 13 18 18 39 8 12
-7 16 -7 12 0 -3 5 7 12 22 15 15 3 30 0 34 -6 5 -8 8 -7 8 3 0 10 11 17 31
18 18 1 44 10 59 19 32 18 33 44 7 132 -16 52 -16 53 3 48 11 -3 20 -1 20 3 0
8 73 26 97 24 15 -2 10 90 -8 133 -7 18 -11 35 -7 38 5 5 53 15 93 18 11 1 28
12 38 24 21 26 19 50 -13 138 -39 105 -110 308 -131 370 -11 33 -24 69 -28 80
-16 36 -71 201 -71 213 0 6 8 19 18 29 78 78 210 250 257 336 61 111 31 124
-100 42 -66 -41 -183 -130 -231 -175 -20 -19 -22 -19 -29 -3 -21 54 -135 383
-135 391 0 5 -11 21 -25 36 -25 27 -34 29 -125 15z"/>
<path d="M187 1629 c7 -7 15 -10 18 -7 3 3 -2 9 -12 12 -14 6 -15 5 -6 -5z"/>
<path d="M286 1132 c-3 -5 1 -9 9 -9 8 0 12 4 9 9 -3 4 -7 8 -9 8 -2 0 -6 -4
-9 -8z"/>
<path d="M1590 329 c0 -5 5 -7 10 -4 6 3 10 8 10 11 0 2 -4 4 -10 4 -5 0 -10
-5 -10 -11z"/>
<path d="M1316 311 c-3 -5 2 -15 12 -22 15 -12 16 -12 5 2 -7 9 -10 19 -6 22
3 4 4 7 0 7 -3 0 -8 -4 -11 -9z"/>
<path d="M1365 310 c-3 -6 1 -7 9 -4 18 7 21 14 7 14 -6 0 -13 -4 -16 -10z"/>
<path d="M1210 275 c0 -7 30 -13 34 -7 3 4 -4 9 -15 9 -10 1 -19 0 -19 -2z"/>
</g>
</svg>
